:SAMPLES-PER-SECOND 30
:FULLY-SPECIFIED
:DEGREES
600
root  -34.2306 40.7324 -10.3938 -164.831 -85.2231 161.458
RightUpLeg  -3.58487 -20.919 -12.6239
RightLeg  44.4155 -8.62285 -9.24642
RightFoot  -1.55983 -0.393863 4.47247
RightToes  0.000482159 0.542163 -0.142577
Spine  10.1485 1.34921 1.41216
Spine1  13.2968 4.79088 -9.93346
HEad  38.778 43.5171 3.68181
LeftShoulder1  6.44495 -9.60286 -42.7176
LeftArm  -15.9143 25.5558 -22.551
LeftForeArm  12.8093 -24.4713 -4.56422
LeftHand  -0.25398 0.0180481 5.50724
RightShoulder  5.37599 9.23768 36.2067
RightArm  1.03201 -22.0625 37.3473
RightForeArm  0.0423217 28.5183 6.17362
RightHand  -0.585765 -1.16634 -15.9301
LeftUpLeg  -9.32856 15.581 -0.958065
LeftLeg  11.4345 -1.93261 -4.15703
LeftFoot  3.23469 -0.385853 2.86139
LeftToes  1.06247e-005 4.65855e-005 -8.18504e-006
601
root  -33.5104 40.6169 -10.031 -161.417 -84.5812 157.626
RightUpLeg  -0.772902 -18.275 -13.0899
RightLeg  47.1441 -7.02028 -8.35653
RightFoot  -1.58653 -0.503782 5.77364
RightToes  0.000482159 0.542163 -0.142577
Spine  9.67644 1.86482 2.64816
Spine1  13.4256 5.98647 -11.6351
HEad  39.7136 44.1572 4.1638
LeftShoulder1  6.42154 -9.51871 -42.8442
LeftArm  -16.1665 26.8233 -23.6141
LeftForeArm  13.2302 -23.8992 -4.41906
LeftHand  -0.25398 0.0180481 5.50724
RightShoulder  5.42225 9.25915 36.4908
RightArm  0.337422 -20.6387 35.5381
RightForeArm  -0.294356 29.051 6.32106
RightHand  -0.582934 -1.28113 -16.2786
LeftUpLeg  -9.72273 14.8159 -1.82907
LeftLeg  10.6514 -0.516285 -4.52959
LeftFoot  4.49633 -0.541826 3.696
LeftToes  1.06247e-005 4.65855e-005 -8.18504e-006
602
root  -32.7076 40.4537 -9.70739 -158.218 -84.0536 154.026
RightUpLeg  2.14046 -15.5793 -13.1795
RightLeg  48.2082 -4.4693 -5.67949
RightFoot  -1.35668 -0.616258 6.9463
RightToes  0.000482159 0.542163 -0.142577
Spine  9.23041 2.33341 3.58114
Spine1  13.6922 6.96931 -12.955
HEad  40.6917 45.2506 4.30938
LeftShoulder1  6.38828 -9.40302 -43.0128
LeftArm  -16.2769 27.9367 -24.8676
LeftForeArm  13.6175 -23.383 -4.29135
LeftHand  -0.25398 0.0180481 5.50724
RightShoulder  5.4393 9.27397 36.5727
RightArm  -1.02599 -19.1894 34.056
RightForeArm  -1.0846 29.9948 6.5972
RightHand  -0.561338 -1.5197 -16.5978
LeftUpLeg  -10.4275 13.7095 -2.69157
LeftLeg  10.0881 1.24649 -4.79542
LeftFoot  5.68214 -0.740964 4.71721
LeftToes  1.06247e-005 4.65855e-005 -8.18504e-006
603
root  -31.8026 40.2332 -9.42607 -154.171 -83.8158 149.776
RightUpLeg  4.91346 -13.1736 -12.8697
RightLeg  47.6189 -0.356558 -0.779079
RightFoot  -0.469024 -0.934481 9.70497
RightToes  0.000482159 0.542163 -0.142577
Spine  8.73456 2.68854 4.14106
Spine1  13.9002 7.62166 -13.8282
HEad  41.5296 46.1823 4.64294
LeftShoulder1  6.3531 -9.31324 -43.0782
LeftArm  -16.0485 29.0453 -26.2424
LeftForeArm  14.3725 -23.2204 -4.22078
LeftHand  -0.25398 0.0180481 5.50724
RightShoulder  5.42187 9.27827 36.426
RightArm  -2.95475 -18.0107 33.0351
RightForeArm  -1.96939 31.736 7.0921
RightHand  -0.553889 -1.64024 -16.882
LeftUpLeg  -11.7052 12.4897 -3.62191
LeftLeg  9.77884 2.80764 -4.93221
LeftFoot  6.93488 -0.931184 5.52198
LeftToes  1.06247e-005 4.65855e-005 -8.18504e-006
604
root  -30.7685 39.9392 -9.17869 -150.757 -83.7733 146.27
RightUpLeg  7.37022 -11.3171 -12.1868
RightLeg  45.6975 4.39493 4.48132
RightFoot  1.00097 -1.56965 14.4985
RightToes  0.000482159 0.542163 -0.142577
Spine  8.47399 2.94746 4.66095
Spine1  13.9015 8.0601 -14.5267
HEad  41.8268 46.639 4.97463
LeftShoulder1  6.34498 -9.31169 -43.0254
LeftArm  -15.6161 30.0492 -27.5785
LeftForeArm  16.1143 -23.5154 -4.18797
LeftHand  -0.25398 0.0180481 5.50724
RightShoulder  5.39911 9.25807 36.3177
RightArm  -5.04996 -17.033 32.2642
RightForeArm  -2.59908 34.4254 7.85795
RightHand  -0.565111 -1.61785 -17.1293
LeftUpLeg  -13.5298 12.0428 -4.55201
LeftLeg  9.86988 3.28355 -4.95786
LeftFoot  8.30218 -1.08487 5.96868
LeftToes  1.06247e-005 4.65855e-005 -8.18504e-006
605
root  -29.6187 39.6137 -8.95677 -150.716 -83.68 146.085
RightUpLeg  9.39092 -9.84535 -10.9625
RightLeg  42.7814 7.83851 7.42972
RightFoot  1.32087 -1.99335 18.0017
RightToes  0.000482159 0.542163 -0.142577
Spine  8.59178 3.19086 5.44103
Spine1  13.7698 8.46849 -15.1084
HEad  41.4244 46.954 4.82885
LeftShoulder1  6.40334 -9.42789 -43.0325
LeftArm  -15.0893 30.7624 -28.7159
LeftForeArm  18.5264 -24.1029 -4.18211
LeftHand  -0.25398 0.0180481 5.50724
RightShoulder  5.38743 9.24884 36.2582
RightArm  -6.68724 -15.8768 31.6062
RightForeArm  -2.77529 37.5956 8.80036
RightHand  -0.582246 -1.55266 -17.3632
LeftUpLeg  -15.3751 11.9993 -5.08539
LeftLeg  9.85498 3.4686 -5.00178
LeftFoot  9.67988 -1.16989 5.9806
LeftToes  1.06247e-005 4.65855e-005 -8.18504e-006
606
root  -28.4021 39.3386 -8.75447 -154.754 -83.234 149.967
RightUpLeg  10.9334 -8.55344 -9.26087
RightLeg  39.1907 8.75275 7.33758
RightFoot  -1.67639 -1.43513 16.464
RightToes  0.000482159 0.542163 -0.142577
Spine  8.86015 3.47445 6.55017
Spine1  13.4936 8.97203 -15.5054
HEad  40.6272 47.4571 4.33486
LeftShoulder1  6.48225 -9.57388 -43.0811
LeftArm  -14.3958 31.1504 -29.659
LeftForeArm  20.6058 -24.8129 -4.22373
LeftHand  -0.25398 0.0180481 5.50724
RightShoulder  5.37336 9.29366 36.0068
RightArm  -7.3961 -14.2311 31.1827
RightForeArm  -2.308 40.4806 9.70206
RightHand  -0.595865 -1.51067 -17.5875
LeftUpLeg  -16.6246 10.8375 -4.69979
LeftLeg  8.62899 5.46681 -5.29654
LeftFoot  11.1818 -1.1311 5.335
LeftToes  1.06247e-005 4.65855e-005 -8.18504e-006
607
root  -27.0926 39.0897 -8.56633 -160.494 -82.242 155.62
RightUpLeg  11.9842 -7.85071 -7.60775
RightLeg  35.4988 7.1934 5.24475
RightFoot  -8.26325 -0.366686 10.9219
RightToes  0.000482159 0.542163 -0.142577
Spine  9.38162 3.80103 7.89673
Spine1  12.9551 9.58781 -16.043
HEad  39.7154 48.0826 3.80491
LeftShoulder1  6.50405 -9.63268 -43.0302
LeftArm  -13.5972 31.1729 -30.3811
LeftForeArm  21.9208 -25.5831 -4.31952
LeftHand  -0.25398 0.0180481 5.50724
RightShoulder  5.34581 9.38061 35.5202
RightArm  -7.21092 -12.0332 31.0946
RightForeArm  -1.0214 42.7015 10.4015
RightHand  -0.584117 -1.59924 -17.6258
LeftUpLeg  -17.4206 8.52099 -3.42831
LeftLeg  6.21146 9.53356 -5.90634
LeftFoot  12.8806 -0.816299 3.45381
LeftToes  1.06247e-005 4.65855e-005 -8.18504e-006
608
root  -25.6474 38.8321 -8.37223 -167.752 -81.2287 162.642
RightUpLeg  12.7407 -8.65335 -6.17412
RightLeg  32.1121 4.51393 2.79935
RightFoot  -15.6282 0.134109 6.06343
RightToes  0.000482159 0.542163 -0.142577
Spine  10.575 3.88373 9.97452
Spine1  12.2819 10.1285 -16.9835
HEad  38.563 48.6289 2.92684
LeftShoulder1  6.51632 -9.65261 -43.0473
LeftArm  -13.0436 30.613 -30.6945
LeftForeArm  22.817 -26.314 -4.4305
LeftHand  -0.25398 0.0180481 5.50724
RightShoulder  5.32021 9.47907 35.0168
RightArm  -6.60155 -9.39299 31.1546
RightForeArm  1.07872 44.3541 10.8843
RightHand  -0.535732 -1.85881 -17.2935
LeftUpLeg  -17.9195 6.72273 -1.46505
LeftLeg  3.51125 13.3539 -6.68286
LeftFoot  13.9233 0.0283036 -0.508187
LeftToes  1.06247e-005 4.65855e-005 -8.18504e-006
609
root  -24.0981 38.6188 -8.16232 -177.712 -80.9409 172.046
RightUpLeg  13.0364 -11.0382 -4.56429
RightLeg  29.6402 2.21453 1.11475
RightFoot  -20.6712 0.145175 3.40882
RightToes  0.000482159 0.542163 -0.142577
Spine  12.3159 3.41344 12.929
Spine1  12.0135 10.3081 -17.9089
HEad  37.118 48.9729 1.301
LeftShoulder1  6.63087 -9.78226 -43.3964
LeftArm  -13.0689 29.4142 -30.6181
LeftForeArm  23.6036 -26.8678 -4.50983
LeftHand  -0.25398 0.0180481 5.50724
RightShoulder  5.31179 9.59116 34.6174
RightArm  -6.01235 -6.60975 31.0758
RightForeArm  3.59444 45.5013 11.1638
RightHand  -0.486979 -2.08367 -16.7329
LeftUpLeg  -17.7885 5.77807 1.07741
LeftLeg  0.679688 15.6853 -7.5399
LeftFoot  12.5676 1.30364 -6.59451
LeftToes  1.06247e-005 4.65855e-005 -8.18504e-006
610
root  -22.5418 38.496 -7.95634 170.812 -81.5756 -177.102
RightUpLeg  12.4101 -13.7815 -2.6173
RightLeg  28.4235 0.401954 -0.00973197
RightFoot  -23.1005 -0.00718089 1.43168
RightToes  0.000482159 0.542163 -0.142577
Spine  13.78 2.54194 15.6927
Spine1  12.3639 9.9503 -18.0156
HEad  35.9365 48.994 -0.553475
LeftShoulder1  6.81441 -10.0079 -43.8815
LeftArm  -13.6141 28.0241 -30.5202
LeftForeArm  24.2471 -27.2826 -4.56696
LeftHand  -0.25398 0.0180481 5.50724
RightShoulder  5.3075 9.70359 34.2703
RightArm  -5.53308 -4.2377 30.8174
RightForeArm  5.72539 45.9863 11.2104
RightHand  -0.471331 -2.10381 -16.2801
LeftUpLeg  -17.0905 5.27992 3.23286
LeftLeg  -2.6841 16.5755 -8.29391
LeftFoot  8.36582 2.18927 -12.8979
LeftToes  1.06247e-005 4.65855e-005 -8.18504e-006
611
root  -21.0789 38.4454 -7.78253 160.522 -82.9413 -167.178
RightUpLeg  10.7436 -15.8509 -0.902293
RightLeg  28.2996 -0.989651 -0.821797
RightFoot  -24.2101 -0.212994 -0.441404
RightToes  0.000482159 0.542163 -0.142577
Spine  14.5017 1.76403 17.0321
Spine1  12.7856 9.0862 -17.0129
HEad  35.6011 48.5561 -1.69027
LeftShoulder1  6.92724 -10.174 -44.0774
LeftArm  -14.2299 26.9903 -30.5323
LeftForeArm  24.7207 -27.7776 -4.65171
LeftHand  -0.25398 0.0180481 5.50724
RightShoulder  5.30477 9.74689 34.0827
RightArm  -5.12245 -2.87656 30.5124
RightForeArm  6.84923 45.757 11.0389
RightHand  -0.471231 -2.0465 -16.0045
LeftUpLeg  -16.8104 5.07826 3.92664
LeftLeg  -5.2103 16.6287 -8.52663
LeftFoot  3.46421 2.12512 -16.31
LeftToes  1.06247e-005 4.65855e-005 -8.18504e-006
612
root  -19.7287 38.5056 -7.65871 153.163 -84.9251 -159.941
RightUpLeg  8.73527 -17.5073 -0.129868
RightLeg  28.3231 -1.83126 -1.3127
RightFoot  -24.4672 -0.381635 -1.88362
RightToes  0.000482159 0.542163 -0.142577
Spine  14.9511 1.26376 16.6477
Spine1  12.9132 8.03296 -15.4019
HEad  35.8966 47.5807 -1.97508
LeftShoulder1  6.95715 -10.2568 -43.9981
LeftArm  -14.5793 26.3281 -30.2276
LeftForeArm  25.1659 -28.4443 -4.77755
LeftHand  -0.25398 0.0180481 5.50724
RightShoulder  5.31664 9.69575 34.3277
RightArm  -4.94275 -2.80519 30.2338
RightForeArm  6.93218 44.8918 10.6924
RightHand  -0.478799 -1.9534 -15.845
LeftUpLeg  -17.1462 4.25556 3.41082
LeftLeg  -5.58339 17.1618 -8.39842
LeftFoot  1.06793 1.69094 -15.542
LeftToes  1.06247e-005 4.65855e-005 -8.18504e-006
